<svg width="53" height="62" viewBox="0 0 53 62" fill="none" xmlns="http://www.w3.org/2000/svg">
<mask id="mask0_1_368" style="mask-type:luminance" maskUnits="userSpaceOnUse" x="0" y="0" width="53" height="31">
<path d="M52.9974 15.299L26.4987 0L-3.55834e-05 15.299L26.4987 30.5981L52.9974 15.299Z" fill="white"/>
</mask>
<g mask="url(#mask0_1_368)">
<path d="M52.997 15.2989L26.4983 -0.000183105L-0.000401794 15.2989L26.4983 30.5979L52.997 15.2989Z" fill="#CEB534"/>
<mask id="mask1_1_368" style="mask-type:luminance" maskUnits="userSpaceOnUse" x="-12" y="-26" width="75" height="57">
<path d="M62.911 -24.372L-9.69812 -25.2962L-11.7869 29.4026L60.8222 30.3269L62.911 -24.372Z" fill="white"/>
</mask>
<g mask="url(#mask1_1_368)">
<path d="M33.0541 12.6108C33.5188 12.1026 33.7603 11.6086 33.7786 11.129C33.7969 10.6494 33.7666 10.2762 33.6877 10.0096C33.6089 9.74294 33.4695 9.50553 33.2697 9.29731C32.8417 8.84627 32.1826 8.61506 31.2925 8.60372C30.1947 8.58976 29.1919 8.80836 28.2842 9.25957C27.3164 9.72708 26.8181 10.3378 26.7893 11.0914C26.771 11.5711 27.0441 11.9988 27.6086 12.3744C28.1731 12.75 28.8939 13.1149 29.7709 13.4688C30.6479 13.8227 31.5843 14.1774 32.58 14.5328C33.5757 14.8883 34.5107 15.2772 35.3851 15.6997C37.3964 16.6679 38.3778 17.7858 38.3294 19.0534C38.2967 19.9099 37.8733 20.6972 37.0592 21.4152C36.2452 22.1332 35.1753 22.7494 33.8495 23.2638C30.9567 24.3924 27.6263 24.9327 23.8582 24.8847C20.8022 24.8458 18.4989 24.5295 16.9483 23.9356C15.3977 23.3417 14.6391 22.608 14.6724 21.7343C14.732 20.1755 15.8225 19.2125 17.9441 18.8454C18.5421 18.733 19.2936 18.6825 20.1985 18.6941C21.1034 18.7056 22.0709 18.8293 23.1008 19.0652C22.5993 19.7615 22.3364 20.4266 22.3122 21.0604C22.2599 22.4308 23.0793 23.1267 24.7705 23.1482C25.8683 23.1622 26.8785 22.9437 27.8011 22.4927C28.7237 22.0417 29.195 21.555 29.2149 21.0326C29.2348 20.5101 28.9627 20.0567 28.3986 19.6725C27.8344 19.2883 27.1278 18.9408 26.2788 18.6301C25.4298 18.3194 24.514 18.0121 23.5311 17.7082C22.5483 17.4044 21.6345 17.0414 20.7898 16.6193C18.8082 15.6515 17.8462 14.4138 17.9038 12.9064C17.9411 11.93 18.3897 11.066 19.2495 10.3143C20.1094 9.56253 21.2167 8.93823 22.5715 8.44129C25.2816 7.43039 28.276 6.94579 31.5546 6.98749C34.8331 7.02926 37.2552 7.34283 38.821 7.92833C40.3868 8.51382 41.1513 9.28626 41.1147 10.2455C41.0826 11.0849 40.4927 11.7629 39.345 12.2796C38.3489 12.7125 37.2574 12.9214 36.0706 12.9063C34.8838 12.8912 33.8783 12.7927 33.0541 12.6108Z" fill="#373737"/>
</g>
</g>
<mask id="mask2_1_368" style="mask-type:luminance" maskUnits="userSpaceOnUse" x="26" y="15" width="28" height="47">
<path d="M53.0002 45.896L53.0002 15.2979L26.5016 30.597L26.5016 61.195L53.0002 45.896Z" fill="white"/>
</mask>
<g mask="url(#mask2_1_368)">
<path d="M53.0002 45.896L53.0002 15.2979L26.5016 30.597L26.5016 61.195L53.0002 45.896Z" fill="#DAC036"/>
<mask id="mask3_1_368" style="mask-type:luminance" maskUnits="userSpaceOnUse" x="33" y="16" width="19" height="49">
<path d="M51.0137 16.4433L33.7992 26.382L33.7992 64.4063L51.0137 54.4675L51.0137 16.4433Z" fill="white"/>
</mask>
<g mask="url(#mask3_1_368)">
<path d="M34.7981 36.0187C34.1441 35.7814 33.8171 35.0064 33.8171 33.6939C33.8171 32.3813 34.1682 31.1795 34.8701 30.0883C35.5722 28.9972 36.529 28.1019 37.7407 27.4023C38.51 26.9582 39.8082 26.3742 41.6353 25.6504L43.5971 24.8725C44.251 24.5896 44.9193 24.251 45.6021 23.8568C46.2849 23.4626 46.8571 22.9549 47.3187 22.3336C48.011 22.6907 48.3572 23.4132 48.3572 24.501C48.3572 25.5889 47.9629 26.7506 47.1744 27.9863C46.3666 29.2804 45.4435 30.2273 44.4049 30.8269C43.9048 31.1157 43.2509 31.4104 42.4431 31.7113C41.5007 35.8973 41.0295 39.2556 41.0295 41.7861C41.0295 44.3166 41.5488 45.9442 42.5873 46.669C42.1065 48.0108 41.5103 49.0941 40.7987 49.9188C40.0871 50.7435 39.1975 51.464 38.1301 52.0803C37.0627 52.6966 36.1973 52.8356 35.5337 52.4973C34.8702 52.1591 34.5384 51.2451 34.5384 49.7552C34.5384 48.0288 34.9231 45.5245 35.6924 42.2424C36.4617 38.984 37.4233 35.9456 38.5773 33.1273C38.0196 33.3783 37.4522 33.6704 36.8752 34.0035C35.6827 34.692 34.9904 35.3637 34.7981 36.0187Z" fill="#373737"/>
</g>
</g>
<mask id="mask4_1_368" style="mask-type:luminance" maskUnits="userSpaceOnUse" x="0" y="15" width="27" height="47">
<path d="M26.4989 30.5982L0.000244141 15.2991L0.000243467 45.8972L26.4989 61.1962L26.4989 30.5982Z" fill="white"/>
</mask>
<g mask="url(#mask4_1_368)">
<path d="M26.4989 30.5982L0.000244141 15.2991L0.000243467 45.8972L26.4989 61.1962L26.4989 30.5982Z" fill="#C2AA2D"/>
<path d="M6.02009 27.7805C5.30528 26.7368 4.94788 25.5414 4.94788 24.1944C4.94788 22.8473 5.33156 22.0434 6.09893 21.7826C6.86634 21.5218 7.91226 21.7738 9.2368 22.5385C10.0777 23.024 11.4969 24.0132 13.4942 25.5062L15.6386 27.1083C16.3534 27.6181 17.084 28.0885 17.8303 28.5193C18.5767 28.9502 19.2022 29.1294 19.7068 29.0566C20.4636 30.2702 20.8421 31.4353 20.8421 32.5517C20.8421 33.6682 20.4111 34.378 19.5491 34.6813C18.6661 35.021 17.6569 34.8631 16.5216 34.2076C15.975 33.892 15.2601 33.3944 14.3772 32.7147C13.347 35.8576 12.8319 38.7275 12.8319 41.3245C12.8319 43.9214 13.3995 46.2272 14.5348 48.2419C14.0093 49.0306 13.3575 49.4128 12.5796 49.3884C11.8017 49.364 10.8293 49.015 9.66249 48.3413C8.49569 47.6676 7.54961 46.7513 6.8243 45.5923C6.09893 44.4332 5.73628 43.0892 5.73628 41.5602C5.73628 39.7884 6.15678 37.6891 6.99772 35.2621C7.83867 32.8594 8.88989 30.9179 10.1513 29.4376C9.54161 29.0127 8.92144 28.6182 8.29071 28.2541C6.98723 27.5015 6.23031 27.3437 6.02009 27.7805Z" fill="#373737"/>
</g>
</svg>
